<svg xmlns="http://www.w3.org/2000/svg" width="816" height="813.1899999999999" data-name="Layer 2"><g>
  <title>Layer 1</title>
  <path id="svg_46" fill="#13447e" d="m814.72846,406.6c0,-224.56 -182.04,-406.6 -406.59,-406.6s-406.6,182.04 -406.6,406.6s182.04,406.59 406.6,406.59s406.59,-182.03 406.59,-406.59l0,0z" class="cls-5"></path>
  <path id="svg_54" fill="#c9a84c" d="m402.45846,569.03s-0.12,0 -0.33,-0.03c0.22,0.06 0.33,0.03 0.33,0.03z" class="cls-4"></path>
  <path id="svg_55" fill="#f7b702" d="m194.87846,281.92c12.8,-15.5 35.72,-33.02 35.72,-33.02l2.69,-14.83l12.47,7.75l4.38,-11.12c33.03,-0.67 46.51,20.89 46.51,20.89c-52.57,-2.69 -101.77,30.33 -101.77,30.33l0,0zm91.66,165.8c-2.19,60.02 33.7,78.18 33.7,78.18l17.52,-56.61c7.73,91.47 59.79,99.21 64.37,99.71c-1.37,-0.37 -6.94,-4.37 -14.5,-43.1c-9.42,-48.26 35.05,-75.48 56.62,-117.27c21.56,-41.79 -18.88,-91.66 -18.88,-91.66l36.4,35.05s-5.39,-43.14 -22.92,-70.1c-17.52,-26.96 -79.52,-60.66 -79.52,-60.66l47.17,2.7c-48.52,-63.35 -115.77,-52.94 -157.22,-47.26c-38.76,5.3 -71.93,36.48 -71.93,36.48l0,22.91s-11.06,6.16 -42.06,30.42c-20.68,16.18 -36.81,31.55 -41.13,38.22c-0.57,0.88 0.35,1.97 1.32,1.58l0.23,-0.1c15.83,-6.35 33.52,-6.22 49.25,0.36l13.71,5.74c3.13,1.31 3.29,5.67 0.28,7.22l-35.66,18.32c-4.22,2.16 -6.56,6.8 -5.78,11.48c1.96,11.71 7.85,35.93 31.54,40.43c45.83,8.71 111.42,57.43 111.42,57.43l0,0c-2.75,-9.52 -7.57,-18.35 -14.29,-25.63c-2.93,-3.17 -3.63,-4.92 -3.11,-7.15c0.31,-1.3 0.58,-2.2 1.5,-3.76l2.37,-2.88c2.08,-2.08 2.25,-1.17 9.66,-0.87l28.68,3.75l-17.56,-16.38c-11.65,-12.05 -2.79,-13.33 3.35,-14.59l17.93,-5.71s-3.97,-1.34 -28.19,-12.29c-18.95,-8.58 -27.98,-24.38 -28.47,-24.09c-0.27,0.16 1.64,-4.31 17.43,-3.54c14.04,0.69 36.29,-0.74 51.01,-3.48c2.09,-0.39 4.19,-0.67 6.31,-0.89l11.13,-1.14c1.17,-3.35 -4.89,-17.18 -2.94,-18.38c2.74,-1.69 26.67,28.07 29.1,25.37c13.37,-14.78 20.34,-50.91 20.34,-50.91l0.8,5.1c4.07,25.75 -6.35,51.51 -26.85,67.61c-23.45,18.43 -50.61,48.64 -52.13,90.39z" class="cls-2"></path>
  <path id="svg_56" fill="#f7b702" d="m116.94846,380.2c1.54,0.12 2.42,-1.63 1.46,-2.83c-7.7,-9.6 -10.14,-22.12 -10.92,-29.11c-0.39,-3.5 -2.22,-6.68 -5.05,-8.78l-13.96,-10.39c-1.28,-0.94 -3.09,-0.01 -3.04,1.58c0.28,8.83 1.78,30.37 9.41,40.19c5.49,7.06 16.21,8.88 22.1,9.34z" class="cls-2"></path>
  <path id="svg_57" fill="#f7b702" d="m130.70846,390.4c-2.56,-1.39 -5.77,-0.52 -7.31,1.96c-25.91,41.9 -23.29,41.1 -27.79,50.41c-13.24,27.43 20.12,49.52 20.12,49.52c-3.64,-25.67 1.3,-39.75 1.3,-39.75c0,0 2.42,17.57 11.39,47.36c8.97,29.8 48.61,37.84 48.61,37.84c-19.85,-34.32 -7.97,-70.27 -7.97,-70.27c0,0 0.12,4.45 1.44,10.71c2.19,10.44 7.32,20.04 14.56,27.88c2.74,-23.98 5.88,-20.78 9.75,-28.44c7.06,-13.97 6.28,-21.49 -9.53,-44.66c-12.67,-18.55 -43,-36.25 -54.57,-42.56l0,0z" class="cls-2"></path>
  <path id="svg_58" fill="#f7b702" d="m709.92846,269.2c-21.28,-45.6 -54.22,-92.47 -74.93,-116.13c-26.22,-29.97 -98.42,-78.06 -167.16,-90.19c-68.75,-12.13 -145.58,43.14 -145.58,43.14c4.04,-8.09 43.13,-43.14 43.13,-43.14c-21.57,4.05 -122.66,36.4 -141.53,48.53s-18.87,45.83 -18.87,45.83c-6.74,-14.83 -35.05,-22.92 -35.05,-22.92c0,0 17.52,21.57 21.57,29.66c4.04,8.09 0,28.3 0,28.3c0,0 26.52,-29.33 101.09,-28.3c74.79,1.03 101.1,20.22 119.97,47.18l18.87,26.95l-41.01,-8.08s63.92,24.26 74.71,74.13c10.78,49.88 5.96,73.36 5.96,73.36l-17.52,-21.57s17.18,40.08 -0.14,63.72c-16.35,22.3 -61.53,72.24 -54.78,105.99c9.48,47.42 24.69,56.18 24.69,56.18c-28.83,0.82 -49.09,-7.72 -63.06,-19.97c-5.61,-4.91 -10.32,-10.7 -14.06,-17.07c-5.31,-9.05 -8.16,-19.34 -8.93,-29.8l-0.75,-10.15l-10.78,37.75l-22.04,-12.66c-12.13,22.92 -31.35,66.73 -1.69,131.43c29.65,64.7 85.71,79.87 85.71,79.87c0,0 -33.72,-29.97 -28.1,-61.82c0,0 19.41,48.57 59.34,55c8.72,1.4 17.67,1.19 30.79,-0.68c8.08,-1.16 13.88,-3.99 13.69,-3.74c-0.08,0.13 9.41,-28.28 14.89,-61.54c5.79,-35.12 -0.7,-71.46 -0.7,-71.46c33.72,56.2 -2.91,141.83 -2.91,141.83c0,0 167.75,-61.28 182.73,-138.08c11.68,-59.86 9.37,-118.01 9.37,-118.01c26.22,56.2 13.11,93.66 13.11,93.66c0,0 33.12,-56.74 41.21,-91.79c8.09,-35.04 -54.32,-155.47 -54.32,-155.47l61.81,99.28s7.49,-103.02 -18.73,-159.22l0,0z" class="cls-2"></path>
  <path id="svg_59" fill="#f7b702" d="m211.46846,602.04c10.47,33.58 78.21,70.85 78.21,70.85c-37.77,-55.68 -8.44,-172.53 -8.44,-172.53c0,0 -80.24,68.1 -69.77,101.68z" class="cls-2"></path>
 </g></svg>